<svg width="156" height="41" viewBox="0 0 156 41" fill="none" xmlns="http://www.w3.org/2000/svg">
<path d="M12.6562 20.3438C12.0938 20.6875 11.5312 21.0156 10.9688 21.3281C10.5 21.5781 10 21.8438 9.46875 22.125C8.96875 22.4062 8.54688 22.625 8.20312 22.7812C8.14062 26.0312 8.0625 28.5312 7.96875 30.2812C7.90625 32.0312 7.85938 33.3125 7.82812 34.125C7.76562 35.0938 7.70312 35.6406 7.64062 35.7656C7.57812 35.7656 7.39062 35.6406 7.07812 35.3906C6.76562 35.1094 6.42188 34.7812 6.04688 34.4062C5.70312 34.0312 5.375 33.6562 5.0625 33.2812C4.78125 32.9062 4.60938 32.625 4.54688 32.4375C4.51562 32.0312 4.4375 30.8594 4.3125 28.9219C4.25 28.0781 4.1875 27.0312 4.125 25.7812C4.0625 24.5312 3.98438 23.0156 3.89062 21.2344C3.79688 19.4531 3.6875 17.3594 3.5625 14.9531C3.46875 12.5469 3.35938 9.78125 3.23438 6.65625C2.67188 6.625 2.20312 6.60938 1.82812 6.60938C1.48438 6.60938 1.21875 6.625 1.03125 6.65625C0.84375 6.65625 0.703125 6.65625 0.609375 6.65625C0.515625 6.625 0.4375 6.54688 0.375 6.42188C0.25 6.17188 0.15625 5.75 0.09375 5.15625C0.03125 4.53125 0 3.9375 0 3.375C0 2.75 0.078125 2.125 0.234375 1.5C0.421875 0.875 0.640625 0.484375 0.890625 0.328125C0.984375 0.265625 1.21875 0.25 1.59375 0.28125C2 0.3125 2.46875 0.375 3 0.46875C3.53125 0.5625 4.10938 0.671875 4.73438 0.796875C5.35938 0.921875 5.95312 1.04688 6.51562 1.17188C7.07812 1.29687 7.5625 1.42188 7.96875 1.54688C8.40625 1.64062 8.71875 1.70313 8.90625 1.73438C9.21875 1.79688 9.79688 1.98438 10.6406 2.29688C11.4844 2.57812 12.375 2.9375 13.3125 3.375C14.2812 3.78125 15.1875 4.23438 16.0312 4.73438C16.9062 5.20312 17.5469 5.67188 17.9531 6.14062C18.1094 6.32812 18.25 6.85938 18.375 7.73438C18.5312 8.60938 18.6406 9.5625 18.7031 10.5938C18.7969 11.5938 18.8281 12.5625 18.7969 13.5C18.7969 14.4062 18.7188 15 18.5625 15.2812C18.4375 15.4688 18.2031 15.7656 17.8594 16.1719C17.5156 16.5781 17.0781 17.0312 16.5469 17.5312C16.0469 18 15.4688 18.4844 14.8125 18.9844C14.1562 19.4844 13.4375 19.9375 12.6562 20.3438ZM8.34375 19.3594C8.625 19.2031 8.96875 18.9062 9.375 18.4688C9.8125 18 10.2656 17.4844 10.7344 16.9219C11.2031 16.3281 11.6719 15.7188 12.1406 15.0938C12.6094 14.4375 13.0312 13.8281 13.4062 13.2656C13.8125 12.7031 14.125 12.2188 14.3438 11.8125C14.5938 11.375 14.7188 11.0938 14.7188 10.9688C14.7188 10.7812 14.5781 10.5469 14.2969 10.2656C14.0156 9.95312 13.6094 9.64062 13.0781 9.32812C12.5781 9.01562 11.9531 8.71875 11.2031 8.4375C10.4844 8.125 9.6875 7.85938 8.8125 7.64062L8.34375 19.3594ZM32.6719 11.3438C32.8594 11.5625 33.0312 11.7969 33.1875 12.0469C33.3438 12.2656 33.4844 12.5781 33.6094 12.9844C33.7344 13.3594 33.8281 13.8594 33.8906 14.4844C33.9844 15.1094 34.0312 15.9219 34.0312 16.9219C34.0312 18.5156 33.9844 20.125 33.8906 21.75C33.8281 23.3438 33.7656 24.75 33.7031 25.9688C33.6719 27.0625 33.6406 28.0781 33.6094 29.0156C33.5781 29.9531 33.5469 30.7812 33.5156 31.5C33.4844 32.1875 33.4375 32.7344 33.375 33.1406C33.3438 33.5469 33.3125 33.7656 33.2812 33.7969C33.1562 33.8906 32.9531 33.8594 32.6719 33.7031C32.4219 33.5156 32.1406 33.2812 31.8281 33C31.5469 32.7188 31.2812 32.4219 31.0312 32.1094C30.7812 31.7969 30.625 31.5469 30.5625 31.3594C30.5625 31.2031 30.5156 30.75 30.4219 30C29.6719 30.4375 28.8438 30.75 27.9375 30.9375C27.0312 31.0938 26.125 31.1562 25.2188 31.125C24.3438 31.0625 23.5312 30.8906 22.7812 30.6094C22.0312 30.3281 21.4688 29.9531 21.0938 29.4844C20.9375 29.2969 20.7969 29.0156 20.6719 28.6406C20.5781 28.2656 20.4844 27.8438 20.3906 27.375C20.3281 26.875 20.2656 26.3594 20.2031 25.8281C20.1406 25.2656 20.0938 24.75 20.0625 24.2812C20 23.0625 20.1562 22.0156 20.5312 21.1406C20.9062 20.2344 21.5938 19.5625 22.5938 19.125C23.0312 18.9375 23.6094 18.8438 24.3281 18.8438C25.0781 18.8125 25.8125 18.8438 26.5312 18.9375C27.2812 19 27.9531 19.0938 28.5469 19.2188C29.1406 19.3125 29.5156 19.3906 29.6719 19.4531C29.5469 17.8594 29.4531 16.4844 29.3906 15.3281C29.3281 14.1406 29.2031 13.375 29.0156 13.0312C28.8594 12.8125 28.6719 12.5938 28.4531 12.375C28.2656 12.2188 28.0156 12.0469 27.7031 11.8594C27.3906 11.6719 27.0156 11.5312 26.5781 11.4375C26.2344 11.375 25.9219 11.5156 25.6406 11.8594C25.3906 12.1719 25.1562 12.7344 24.9375 13.5469C24.75 14.3281 24.6406 15.5312 24.6094 17.1562C23.5156 17.1875 22.6719 17.1875 22.0781 17.1562C21.5156 17.0938 21.0938 17.0312 20.8125 16.9688C20.4688 16.9062 20.2656 16.8281 20.2031 16.7344C20.1406 16.6094 20.1719 16.1562 20.2969 15.375C20.4219 14.5625 20.5938 13.6875 20.8125 12.75C21.0625 11.8125 21.3438 10.9219 21.6562 10.0781C22 9.23438 22.3594 8.70312 22.7344 8.48438C23.4844 8.04688 24.375 7.89062 25.4062 8.01562C26.4688 8.14062 27.5 8.40625 28.5 8.8125C29.5 9.21875 30.3906 9.67188 31.1719 10.1719C31.9531 10.6719 32.4531 11.0625 32.6719 11.3438ZM29.7656 25.0312C29.7656 24.875 29.7812 24.6719 29.8125 24.4219C29.8438 24.1406 29.8594 23.8594 29.8594 23.5781C29.8594 23.2969 29.8438 23.0312 29.8125 22.7812C29.8125 22.5312 29.7812 22.3438 29.7188 22.2188C29.625 22.0312 29.3438 21.875 28.875 21.75C28.4375 21.625 27.9375 21.5469 27.375 21.5156C26.8125 21.4531 26.2812 21.4375 25.7812 21.4688C25.2812 21.4688 24.9375 21.5312 24.75 21.6562C24.5 21.8125 24.3125 22.0312 24.1875 22.3125C24.0938 22.5938 24.0312 23.0312 24 23.625C24 23.9062 24.0156 24.2031 24.0469 24.5156C24.0781 24.8281 24.1094 25.1406 24.1406 25.4531C24.2031 25.7344 24.2656 25.9844 24.3281 26.2031C24.4219 26.4219 24.5156 26.5625 24.6094 26.625C24.8281 26.7812 25.2031 26.9219 25.7344 27.0469C26.2969 27.1406 26.8594 27.1719 27.4219 27.1406C27.9844 27.0781 28.5 26.8906 28.9688 26.5781C29.4375 26.2656 29.7031 25.75 29.7656 25.0312ZM47.2031 10.4531C47.4531 10.6094 47.6875 10.9219 47.9062 11.3906C48.1562 11.8281 48.375 12.3438 48.5625 12.9375C48.7812 13.5 48.9531 14.1094 49.0781 14.7656C49.2344 15.4219 49.3594 16.0312 49.4531 16.5938C49.5781 17.1562 49.6562 17.6406 49.6875 18.0469C49.7188 18.4219 49.7188 18.6562 49.6875 18.75C49.625 18.875 49.4375 19 49.125 19.125C48.8438 19.25 48.4219 19.3906 47.8594 19.5469C47.2969 19.7031 46.5156 19.875 45.5156 20.0625C45.4531 18.3438 45.3281 17.0469 45.1406 16.1719C44.9531 15.2656 44.75 14.625 44.5312 14.25C44.2812 13.8125 44.0156 13.5938 43.7344 13.5938C43.4531 13.7188 43.2031 13.875 42.9844 14.0625C42.7656 14.2188 42.5781 14.3906 42.4219 14.5781C42.2344 14.7969 42.0625 15.0312 41.9062 15.2812C41.8438 15.375 41.7812 15.5938 41.7188 15.9375C41.6562 16.2812 41.5938 16.7969 41.5312 17.4844C41.5312 17.7031 41.5156 18.1562 41.4844 18.8438C41.4844 19.5312 41.4688 20.3281 41.4375 21.2344C41.4375 22.1406 41.4219 23.0938 41.3906 24.0938C41.3906 25.0938 41.375 26.0312 41.3438 26.9062C41.3438 27.75 41.3281 28.4688 41.2969 29.0625C41.2969 29.6562 41.2812 30 41.25 30.0938C41.1875 30.25 41.0312 30.4688 40.7812 30.75C40.5312 31.0312 40.25 31.2969 39.9375 31.5469C39.625 31.7656 39.3281 31.9531 39.0469 32.1094C38.7656 32.2344 38.5781 32.2188 38.4844 32.0625C38.3906 31.9688 38.2969 31.5625 38.2031 30.8438C38.1094 30.125 38 29.25 37.875 28.2188C37.7812 27.1562 37.6719 26 37.5469 24.75C37.4219 23.5 37.3125 22.2969 37.2188 21.1406C37.125 19.9844 37.0469 18.9531 36.9844 18.0469C36.9219 17.1094 36.875 16.4375 36.8438 16.0312C36.8125 15.4375 36.7812 14.7812 36.75 14.0625C36.7188 13.3438 36.6875 12.6719 36.6562 12.0469C36.6562 11.3906 36.6562 10.8281 36.6562 10.3594C36.6875 9.85938 36.75 9.5625 36.8438 9.46875C36.9062 9.375 37.1094 9.35938 37.4531 9.42188C37.8281 9.45312 38.2188 9.54688 38.625 9.70312C39.0625 9.82812 39.4688 10 39.8438 10.2188C40.2188 10.4375 40.4688 10.6406 40.5938 10.8281C40.6875 10.9844 40.7812 11.2188 40.875 11.5312C41.4688 11.2188 42.0312 10.9375 42.5625 10.6875C43.125 10.4062 43.6562 10.2031 44.1562 10.0781C44.6875 9.95312 45.2031 9.92188 45.7031 9.98438C46.2031 10.0156 46.7031 10.1719 47.2031 10.4531ZM61.3125 11.9062C61.3438 12 61.3438 12.2656 61.3125 12.7031C61.2812 13.1094 61.2188 13.5781 61.125 14.1094C61.0625 14.6094 60.9844 15.0781 60.8906 15.5156C60.7969 15.9219 60.7188 16.1719 60.6562 16.2656C60.3438 16.2969 60.0312 16.3125 59.7188 16.3125C59.4062 16.2812 59.1094 16.2656 58.8281 16.2656H57.8438C57.8125 18.3281 57.7656 20.375 57.7031 22.4062C57.6406 24.4375 57.5625 26.2656 57.4688 27.8906C57.375 29.4844 57.2656 30.7812 57.1406 31.7812C57.0469 32.7812 56.9531 33.2969 56.8594 33.3281C56.6406 33.3594 56.3906 33.2656 56.1094 33.0469C55.8281 32.8281 55.5469 32.5625 55.2656 32.25C55.0156 31.9062 54.7812 31.5625 54.5625 31.2188C54.375 30.8438 54.2656 30.5156 54.2344 30.2344C54.0781 28.3281 53.9375 26.5156 53.8125 24.7969C53.6875 23.0469 53.5938 21.5 53.5312 20.1562C53.4062 18.5938 53.3281 17.1406 53.2969 15.7969C52.9531 15.7656 52.6094 15.7188 52.2656 15.6562C51.9531 15.5938 51.625 15.5312 51.2812 15.4688C50.9688 15.4062 50.6406 15.3438 50.2969 15.2812C50.2344 15.2188 50.1562 15.0781 50.0625 14.8594C49.9688 14.6094 49.875 14.3438 49.7812 14.0625C49.7188 13.7812 49.6562 13.5156 49.5938 13.2656C49.5312 12.9844 49.5 12.7812 49.5 12.6562C49.5 12.5625 49.8438 12.4688 50.5312 12.375C51.25 12.2812 52.125 12.2031 53.1562 12.1406C53.0938 10.4844 53.0469 9.04688 53.0156 7.82812C53.0156 6.57812 53.0625 5.73438 53.1562 5.29688C53.25 4.70313 53.5 4.14063 53.9062 3.60938C54.3438 3.04688 54.7969 2.5625 55.2656 2.15625C55.7656 1.75 56.2188 1.45312 56.625 1.26562C57.0625 1.04688 57.3438 0.984375 57.4688 1.07812C57.5625 1.14063 57.6406 1.46875 57.7031 2.0625C57.7656 2.625 57.8125 3.39063 57.8438 4.35938C57.875 5.32812 57.8906 6.46875 57.8906 7.78125C57.8906 9.0625 57.8906 10.4219 57.8906 11.8594C58.8281 11.7969 59.625 11.7812 60.2812 11.8125C60.9375 11.8125 61.2812 11.8438 61.3125 11.9062ZM73.6875 9.75C73.7812 9.8125 73.8594 10.2188 73.9219 10.9688C73.9844 11.7188 74.0312 12.7031 74.0625 13.9219C74.125 15.1094 74.1562 16.4688 74.1562 18C74.1562 19.5312 74.1562 21.1094 74.1562 22.7344C74.1562 24.3594 74.1406 25.9688 74.1094 27.5625C74.1094 29.125 74.0781 30.5625 74.0156 31.875C73.9844 33.1562 73.9375 34.25 73.875 35.1562C73.8438 36.0625 73.7969 36.6406 73.7344 36.8906C73.6719 37.0781 73.4844 37.3594 73.1719 37.7344C72.8906 38.1406 72.5469 38.5469 72.1406 38.9531C71.7344 39.3594 71.3125 39.7188 70.875 40.0312C70.4688 40.375 70.125 40.5938 69.8438 40.6875C69.2812 40.875 68.6562 40.8438 67.9688 40.5938C67.2812 40.3438 66.625 40.0156 66 39.6094C65.4062 39.2031 64.875 38.7656 64.4062 38.2969C63.9688 37.8594 63.7031 37.5469 63.6094 37.3594C63.5156 37.1719 63.4219 36.8906 63.3281 36.5156C63.2656 36.1719 63.2188 35.8281 63.1875 35.4844C63.1562 35.1094 63.1562 34.7969 63.1875 34.5469C63.25 34.2656 63.3594 34.125 63.5156 34.125C63.6406 34.125 63.9688 34.2656 64.5 34.5469C65.0625 34.8281 65.6562 35.125 66.2812 35.4375C66.9062 35.7188 67.4844 35.9531 68.0156 36.1406C68.5469 36.3281 68.875 36.3125 69 36.0938C69.125 35.8438 69.25 35.1719 69.375 34.0781C69.5 32.9531 69.625 31.5938 69.75 30C68.6562 30.375 67.6562 30.625 66.75 30.75C65.875 30.8438 65.1406 30.6875 64.5469 30.2812C64.2656 30.0938 63.9688 29.7656 63.6562 29.2969C63.375 28.8281 63.1094 28.2969 62.8594 27.7031C62.6406 27.0781 62.4531 26.4219 62.2969 25.7344C62.1406 25.0156 62.0625 24.3438 62.0625 23.7188C62.0625 23.2812 62.1094 22.6562 62.2031 21.8438C62.3281 21.0312 62.4844 20.1406 62.6719 19.1719C62.8594 18.2031 63.0469 17.2031 63.2344 16.1719C63.4531 15.1406 63.6562 14.2031 63.8438 13.3594C64.0625 12.5156 64.2344 11.8125 64.3594 11.25C64.5156 10.6562 64.6094 10.3281 64.6406 10.2656C64.7031 10.1719 64.8594 10.125 65.1094 10.125C65.3594 10.0938 65.625 10.1094 65.9062 10.1719C66.1875 10.2031 66.4531 10.2812 66.7031 10.4062C66.9531 10.5312 67.1094 10.6719 67.1719 10.8281C67.2031 10.9531 67.2031 11.3438 67.1719 12C67.1719 12.6562 67.125 13.4375 67.0312 14.3438C66.9688 15.25 66.8906 16.2344 66.7969 17.2969C66.7344 18.3281 66.6562 19.3125 66.5625 20.25C66.5 21.1562 66.4375 21.9375 66.375 22.5938C66.3125 23.25 66.2812 23.6406 66.2812 23.7656C66.2812 24.2656 66.3281 24.75 66.4219 25.2188C66.5469 25.6562 66.6875 26.0469 66.8438 26.3906C67.0312 26.7031 67.2188 26.9531 67.4062 27.1406C67.5938 27.3281 67.7656 27.3906 67.9219 27.3281C68.4531 27.2344 68.9375 27.1094 69.375 26.9531C69.5938 26.8594 69.7969 26.7656 69.9844 26.6719C70.0781 25.1406 70.1719 23.5781 70.2656 21.9844C70.3594 20.3594 70.4375 18.875 70.5 17.5312C70.5625 16.1875 70.6094 15.0469 70.6406 14.1094C70.7031 13.1719 70.7344 12.5781 70.7344 12.3281C70.7344 12.0469 70.8594 11.7344 71.1094 11.3906C71.3594 11.0156 71.6406 10.6875 71.9531 10.4062C72.2656 10.125 72.5781 9.92188 72.8906 9.79688C73.2344 9.64062 73.5 9.625 73.6875 9.75ZM101.484 1.40625C101.578 1.5625 101.625 1.92188 101.625 2.48438C101.656 3.04688 101.641 3.65625 101.578 4.3125C101.516 4.96875 101.422 5.60937 101.297 6.23438C101.203 6.82812 101.094 7.21875 100.969 7.40625C100.875 7.5625 100.297 7.625 99.2344 7.59375C98.2031 7.53125 96.7188 7.375 94.7812 7.125C94.7812 8.34375 94.7656 9.90625 94.7344 11.8125C94.7031 13.7188 94.6406 15.7656 94.5469 17.9531C94.4844 20.1094 94.4062 22.2812 94.3125 24.4688C94.25 26.6562 94.1719 28.6406 94.0781 30.4219C93.9844 32.2031 93.8906 33.6562 93.7969 34.7812C93.7031 35.9062 93.625 36.5 93.5625 36.5625C93.4375 36.6562 93.2188 36.6094 92.9062 36.4219C92.625 36.2656 92.3281 36.0312 92.0156 35.7188C91.7031 35.4062 91.4062 35.0938 91.125 34.7812C90.875 34.4375 90.7031 34.1406 90.6094 33.8906C90.5781 33.7656 90.5156 33.1562 90.4219 32.0625C90.3594 30.9688 90.2812 29.5938 90.1875 27.9375C90.0938 26.2812 89.9844 24.4375 89.8594 22.4062C89.7344 20.375 89.6094 18.3594 89.4844 16.3594C89.3594 14.3594 89.2188 12.4844 89.0625 10.7344C88.9375 8.98438 88.8281 7.53125 88.7344 6.375C86.6094 6.15625 85.0781 5.9375 84.1406 5.71875C83.2031 5.5 82.6719 5.32812 82.5469 5.20312C82.4219 5.07813 82.2969 4.84375 82.1719 4.5C82.0156 4.125 81.8906 3.75 81.7969 3.375C81.7031 3 81.6562 2.65625 81.6562 2.34375C81.625 2 81.6562 1.78125 81.75 1.6875C81.8125 1.625 82.3438 1.5625 83.3438 1.5C84.3125 1.4375 85.5156 1.375 86.9531 1.3125C88.3906 1.25 89.9375 1.20312 91.5938 1.17188C93.2812 1.14063 94.8438 1.125 96.2812 1.125C97.7188 1.125 98.9219 1.15625 99.8906 1.21875C100.891 1.25 101.422 1.3125 101.484 1.40625ZM106.078 15.8438C106.141 16 106.172 16.5 106.172 17.3438C106.203 18.1562 106.203 19.1562 106.172 20.3438C106.172 21.5 106.141 22.75 106.078 24.0938C106.016 25.4062 105.938 26.6562 105.844 27.8438C105.781 29 105.703 30 105.609 30.8438C105.516 31.6562 105.422 32.1406 105.328 32.2969C105.047 32.7344 104.625 33.0156 104.062 33.1406C103.5 33.2344 103.094 33.25 102.844 33.1875C102.719 33.1875 102.578 32.8281 102.422 32.1094C102.297 31.3906 102.172 30.4844 102.047 29.3906C101.922 28.2969 101.812 27.1094 101.719 25.8281C101.625 24.5469 101.547 23.3281 101.484 22.1719C101.422 20.9844 101.391 19.9531 101.391 19.0781C101.391 18.2031 101.422 17.6406 101.484 17.3906C101.578 16.9844 101.844 16.625 102.281 16.3125C102.75 16 103.234 15.7656 103.734 15.6094C104.266 15.4531 104.75 15.3906 105.188 15.4219C105.656 15.4219 105.953 15.5625 106.078 15.8438ZM106.312 8.25C106.438 8.5 106.484 8.84375 106.453 9.28125C106.453 9.71875 106.406 10.1719 106.312 10.6406C106.219 11.1094 106.094 11.5625 105.938 12C105.781 12.4375 105.625 12.7812 105.469 13.0312C105.156 13.4688 104.688 13.75 104.062 13.875C103.469 13.9688 103.031 13.9844 102.75 13.9219C102.531 13.8906 102.312 13.75 102.094 13.5C101.875 13.2188 101.688 12.8906 101.531 12.5156C101.375 12.1094 101.266 11.6719 101.203 11.2031C101.141 10.7344 101.156 10.2969 101.25 9.89062C101.344 9.48438 101.641 9.125 102.141 8.8125C102.641 8.46875 103.172 8.21875 103.734 8.0625C104.297 7.875 104.828 7.79688 105.328 7.82812C105.828 7.82812 106.156 7.96875 106.312 8.25ZM128.672 8.25C129.266 8.75 129.703 9.75 129.984 11.25C130.266 12.7188 130.375 14.3594 130.312 16.1719C130.281 16.7344 130.203 17.5156 130.078 18.5156C129.953 19.4844 129.797 20.5625 129.609 21.75C129.453 22.9062 129.266 24.0938 129.047 25.3125C128.859 26.5312 128.672 27.6562 128.484 28.6875C128.297 29.7188 128.125 30.5938 127.969 31.3125C127.844 32 127.766 32.4062 127.734 32.5312C127.672 32.75 127.5 32.9688 127.219 33.1875C126.938 33.4062 126.641 33.5938 126.328 33.75C126.047 33.875 125.766 33.9688 125.484 34.0312C125.203 34.0625 125.031 34 124.969 33.8438C124.938 33.75 124.938 33.2656 124.969 32.3906C125 31.5156 125.047 30.4375 125.109 29.1562C125.172 27.8438 125.234 26.4531 125.297 24.9844C125.391 23.4844 125.469 22.0781 125.531 20.7656C125.594 19.4531 125.656 18.3438 125.719 17.4375C125.781 16.5 125.812 15.9375 125.812 15.75C125.844 14.7812 125.766 13.9375 125.578 13.2188C125.391 12.4688 125.078 12.0938 124.641 12.0938C124.484 12.0938 124.297 12.1719 124.078 12.3281C123.859 12.4531 123.641 12.6094 123.422 12.7969C123.234 12.9844 123.047 13.1875 122.859 13.4062C122.703 13.625 122.625 13.8281 122.625 14.0156C122.594 14.5781 122.547 15.4062 122.484 16.5C122.453 17.5938 122.406 18.7969 122.344 20.1094C122.312 21.4219 122.266 22.7656 122.203 24.1406C122.172 25.5156 122.125 26.7812 122.062 27.9375C122.031 29.0938 122 30.0625 121.969 30.8438C121.938 31.5938 121.906 32.0156 121.875 32.1094C121.812 32.2344 121.609 32.3281 121.266 32.3906C120.953 32.4219 120.594 32.4219 120.188 32.3906C119.781 32.3594 119.406 32.2812 119.062 32.1562C118.75 32.0312 118.562 31.8594 118.5 31.6406C118.438 31.4844 118.391 31.0156 118.359 30.2344C118.328 29.4219 118.281 28.4531 118.219 27.3281C118.188 26.2031 118.156 25 118.125 23.7188C118.094 22.4062 118.062 21.1875 118.031 20.0625C118 18.9375 117.969 17.9688 117.938 17.1562C117.938 16.3438 117.938 15.8438 117.938 15.6562C117.938 14.9062 117.875 14.3125 117.75 13.875C117.625 13.4062 117.469 13.0469 117.281 12.7969C117.125 12.5156 116.938 12.3438 116.719 12.2812C116.5 12.1875 116.281 12.1406 116.062 12.1406C115.969 12.1406 115.828 12.2188 115.641 12.375C115.453 12.5 115.266 12.7031 115.078 12.9844C114.891 13.2344 114.734 13.5312 114.609 13.875C114.484 14.1875 114.438 14.5312 114.469 14.9062C114.469 15.0625 114.484 15.6406 114.516 16.6406C114.547 17.6406 114.562 18.8438 114.562 20.25C114.594 21.6562 114.625 23.1719 114.656 24.7969C114.688 26.4219 114.703 27.9375 114.703 29.3438C114.734 30.7188 114.75 31.8906 114.75 32.8594C114.75 33.7969 114.75 34.2969 114.75 34.3594C114.688 34.5156 114.516 34.6094 114.234 34.6406C113.953 34.6406 113.641 34.5781 113.297 34.4531C112.953 34.3281 112.625 34.1562 112.312 33.9375C112 33.6875 111.781 33.3906 111.656 33.0469C111.594 32.7969 111.5 32.25 111.375 31.4062C111.25 30.5625 111.109 29.5625 110.953 28.4062C110.797 27.2188 110.641 25.9531 110.484 24.6094C110.328 23.2344 110.172 21.9219 110.016 20.6719C109.859 19.3906 109.719 18.2344 109.594 17.2031C109.5 16.1719 109.422 15.3906 109.359 14.8594C109.266 14.1094 109.156 13.2969 109.031 12.4219C108.938 11.5156 108.844 10.6562 108.75 9.84375C108.688 9 108.641 8.28125 108.609 7.6875C108.578 7.0625 108.609 6.67188 108.703 6.51562C108.766 6.39062 108.984 6.34375 109.359 6.375C109.766 6.40625 110.188 6.5 110.625 6.65625C111.094 6.78125 111.531 6.96875 111.938 7.21875C112.375 7.4375 112.656 7.67188 112.781 7.92188C112.875 8.10938 112.969 8.34375 113.062 8.625C113.188 8.875 113.312 9.28125 113.438 9.84375C113.969 9.4375 114.516 9.0625 115.078 8.71875C115.641 8.34375 116.203 8.0625 116.766 7.875C117.328 7.65625 117.859 7.54688 118.359 7.54688C118.891 7.51562 119.391 7.65625 119.859 7.96875C120.266 8.28125 120.656 8.82812 121.031 9.60938C122.531 8.76562 123.969 8.1875 125.344 7.875C126.75 7.53125 127.859 7.65625 128.672 8.25ZM136.406 22.4531C136.906 22.2656 137.469 22.0625 138.094 21.8438C138.75 21.5938 139.375 21.375 139.969 21.1875C140.562 20.9688 141.094 20.7812 141.562 20.625C142.031 20.4688 142.375 20.3438 142.594 20.25C142.562 19.9062 142.516 19.5156 142.453 19.0781C142.422 18.6094 142.375 18.1719 142.312 17.7656C142.25 17.3281 142.172 16.9531 142.078 16.6406C141.984 16.3281 141.891 16.1406 141.797 16.0781C141.547 15.9844 141.125 15.9062 140.531 15.8438C139.969 15.75 139.375 15.7656 138.75 15.8906C138.156 16.0156 137.609 16.25 137.109 16.5938C136.609 16.9375 136.328 17.4844 136.266 18.2344C136.203 18.7344 136.188 19.3594 136.219 20.1094C136.25 20.8594 136.312 21.6406 136.406 22.4531ZM146.578 23.2031C146.547 23.2656 146.172 23.3906 145.453 23.5781C144.734 23.7656 143.875 23.9688 142.875 24.1875C141.875 24.375 140.812 24.5781 139.688 24.7969C138.562 24.9844 137.594 25.1406 136.781 25.2656C136.938 26.5156 137.125 27.6406 137.344 28.6406C137.562 29.6094 137.75 30.2188 137.906 30.4688C138.062 30.6875 138.266 30.8906 138.516 31.0781C138.734 31.2344 139 31.3906 139.312 31.5469C139.656 31.6719 140.062 31.7656 140.531 31.8281C140.875 31.9219 141.203 31.7969 141.516 31.4531C141.766 31.1406 141.984 30.5938 142.172 29.8125C142.391 29.0312 142.5 27.7969 142.5 26.1094C143.469 25.9531 144.219 25.8594 144.75 25.8281C145.312 25.7969 145.719 25.7969 145.969 25.8281C146.281 25.8594 146.469 25.9062 146.531 25.9688C146.562 26.0625 146.562 26.2969 146.531 26.6719C146.5 27.0469 146.422 27.5156 146.297 28.0781C146.203 28.6094 146.078 29.2031 145.922 29.8594C145.797 30.4844 145.641 31.0938 145.453 31.6875C145.266 32.25 145.062 32.7656 144.844 33.2344C144.625 33.6719 144.391 33.9844 144.141 34.1719C143.391 34.7344 142.453 35.0156 141.328 35.0156C140.203 34.9844 139.094 34.8281 138 34.5469C136.906 34.2344 135.922 33.875 135.047 33.4688C134.172 33.0312 133.625 32.6719 133.406 32.3906C133.25 32.2031 133.109 31.7344 132.984 30.9844C132.859 30.2031 132.75 29.2656 132.656 28.1719C132.594 27.0781 132.547 25.875 132.516 24.5625C132.484 23.25 132.5 21.9688 132.562 20.7188C132.656 19.4688 132.781 18.3125 132.938 17.25C133.125 16.1875 133.375 15.3281 133.688 14.6719C134.156 13.7344 134.922 12.9688 135.984 12.375C137.047 11.7812 138.172 11.375 139.359 11.1562C140.547 10.9375 141.672 10.9062 142.734 11.0625C143.828 11.2188 144.641 11.5625 145.172 12.0938C145.484 12.4062 145.766 13.0312 146.016 13.9688C146.266 14.875 146.422 15.9844 146.484 17.2969C146.484 17.4219 146.5 17.7812 146.531 18.375C146.562 18.9688 146.578 19.6094 146.578 20.2969C146.609 20.9531 146.625 21.5781 146.625 22.1719C146.625 22.7656 146.609 23.1094 146.578 23.2031ZM155.391 1.59375C155.453 1.78125 155.469 2.51562 155.438 3.79688C155.438 5.04687 155.391 6.59375 155.297 8.4375C155.234 10.25 155.141 12.2031 155.016 14.2969C154.891 16.3594 154.75 18.3125 154.594 20.1562C154.469 21.9688 154.328 23.5156 154.172 24.7969C154.047 26.0469 153.922 26.7656 153.797 26.9531C153.484 27.4531 153.016 27.75 152.391 27.8438C151.766 27.9062 151.297 27.9062 150.984 27.8438C150.891 27.8125 150.797 27.4688 150.703 26.8125C150.609 26.1562 150.516 25.2812 150.422 24.1875C150.359 23.0938 150.297 21.8438 150.234 20.4375C150.172 19.0312 150.125 17.5938 150.094 16.125C150.062 14.625 150.031 13.1562 150 11.7188C149.969 10.25 149.953 8.92188 149.953 7.73438C149.953 6.54688 149.969 5.54688 150 4.73438C150.031 3.92187 150.078 3.40625 150.141 3.1875C150.266 2.75 150.578 2.35938 151.078 2.01562C151.578 1.67187 152.125 1.42188 152.719 1.26562C153.312 1.07812 153.859 1.01562 154.359 1.07812C154.891 1.10937 155.234 1.28125 155.391 1.59375ZM154.594 31.125C154.719 31.3438 154.766 31.6562 154.734 32.0625C154.734 32.4375 154.688 32.8438 154.594 33.2812C154.531 33.6875 154.422 34.0938 154.266 34.5C154.141 34.875 154 35.1875 153.844 35.4375C153.719 35.625 153.547 35.7812 153.328 35.9062C153.109 36.0312 152.875 36.1094 152.625 36.1406C152.375 36.2031 152.141 36.2344 151.922 36.2344C151.703 36.2344 151.531 36.2344 151.406 36.2344C151.219 36.2031 151.016 36.0625 150.797 35.8125C150.609 35.5625 150.438 35.2656 150.281 34.9219C150.156 34.5469 150.062 34.1562 150 33.75C149.938 33.3125 149.953 32.9062 150.047 32.5312C150.141 32.1875 150.406 31.875 150.844 31.5938C151.281 31.2812 151.75 31.0469 152.25 30.8906C152.781 30.7344 153.266 30.6719 153.703 30.7031C154.172 30.7031 154.469 30.8438 154.594 31.125Z" fill="#F5F5F5"/>
</svg>